<?xml version="1.0" encoding="utf-8"?>
<!-- Generator: Adobe Illustrator 23.0.0, SVG Export Plug-In . SVG Version: 6.00 Build 0)  -->
<svg version="1.1" id="レイヤー_1" xmlns="http://www.w3.org/2000/svg" xmlns:xlink="http://www.w3.org/1999/xlink" x="0px"
	 y="0px" viewBox="0 0 16 16" style="enable-background:new 0 0 16 16;" xml:space="preserve">
<style type="text/css">
	.st0{fill:#FFFFFF;}
</style>
<title>icon_tw</title>
<path class="st0" d="M14.1,4.9c0.3,4.9-3.5,9.1-8.4,9.3c-0.2,0-0.3,0-0.5,0c-1.7,0-3.4-0.5-4.8-1.4C2,13,3.7,12.5,5,11.5
	c-1.3,0-2.5-0.9-2.9-2.2c0.5,0.1,1,0.1,1.4-0.1C2,9,1,7.7,1,6.2c0.4,0.2,0.9,0.4,1.4,0.4C1,5.6,0.6,3.8,1.4,2.4
	c1.6,2,3.9,3.2,6.5,3.3c-0.4-1.7,0.7-3.4,2.4-3.8c0.2-0.1,0.5-0.1,0.7-0.1c0.9,0,1.7,0.4,2.3,1c0.7-0.1,1.4-0.4,2-0.8
	c-0.2,0.7-0.7,1.3-1.4,1.7c0.6-0.1,1.2-0.2,1.8-0.5C15.2,3.9,14.7,4.4,14.1,4.9z"/>
</svg>
