<?xml version="1.0" encoding="utf-8"?>
<!-- Generator: Adobe Illustrator 23.0.4, SVG Export Plug-In . SVG Version: 6.00 Build 0)  -->
<svg version="1.1" id="レイヤー_1" xmlns="http://www.w3.org/2000/svg" xmlns:xlink="http://www.w3.org/1999/xlink" x="0px"
	 y="0px" viewBox="0 0 160 160" style="enable-background:new 0 0 160 160;" xml:space="preserve">
<style type="text/css">
	.st0{fill:#717071;}
</style>
<title>icon_tw</title>
<path class="st0" d="M140.8,48.8c2.5,49-35.1,90.7-84.1,93.3c-1.7,0.1-3.4,0.1-5.1,0.1c-17.1,0-33.8-4.9-48.1-14.1
	c16.6,1.9,33.3-2.7,46.5-13c-13.4-0.3-25.2-9-29.4-21.8c4.7,0.9,9.6,0.7,14.2-0.6C20.2,89.6,9.8,76.5,10,61.6
	c4.4,2.4,9.2,3.7,14.2,3.9C10.3,56.4,6,38,14.2,23.6c15.9,19.6,39.4,31.5,64.6,32.8c-3.9-16.9,6.6-33.9,23.6-37.8
	c2.3-0.5,4.7-0.8,7-0.8c8.7,0,17,3.6,22.9,10c7.1-1.4,13.8-3.9,20-7.6c-2.3,7.3-7.2,13.5-13.8,17.4c6.2-0.7,12.3-2.4,18-4.9
	C152.3,39,146.9,44.4,140.8,48.8z"/>
</svg>
