<?xml version="1.0" encoding="utf-8"?>
<!-- Generator: Adobe Illustrator 23.0.4, SVG Export Plug-In . SVG Version: 6.00 Build 0)  -->
<svg version="1.1" id="レイヤー_1" xmlns="http://www.w3.org/2000/svg" xmlns:xlink="http://www.w3.org/1999/xlink" x="0px"
	 y="0px" viewBox="0 0 160 160" style="enable-background:new 0 0 160 160;" xml:space="preserve">
<style type="text/css">
	.st0{fill:#717071;}
</style>
<title>icon_in</title>
<path class="st0" d="M113.1,159.2H46.9c-25.4,0-46-20.6-46-46h0V46.8c0-25.4,20.6-46,46-46h66.2c25.4,0,46,20.6,46,46l0,0v66.4
	C159.1,138.6,138.5,159.2,113.1,159.2z M46.9,15.3c-17.4,0-31.5,14.1-31.5,31.5v66.4c0,17.4,14.1,31.5,31.5,31.5h66.2
	c17.4,0,31.5-14.1,31.5-31.5V46.8c0-17.4-14.1-31.5-31.5-31.5L46.9,15.3z"/>
<path class="st0" d="M80,120.5c-22.4,0-40.5-18.1-40.5-40.5S57.6,39.5,80,39.5s40.5,18.1,40.5,40.5l0,0
	C120.4,102.3,102.3,120.4,80,120.5z M80,53.7c-14.5,0-26.3,11.8-26.3,26.3s11.8,26.3,26.3,26.3s26.3-11.8,26.3-26.3l0,0
	C106.3,65.5,94.5,53.7,80,53.7z"/>
<path class="st0" d="M90,80c0,5.5-4.5,10-10,10s-10-4.5-10-10s4.5-10,10-10S90,74.5,90,80z"/>
</svg>
