<?xml version="1.0" encoding="utf-8"?>
<!-- Generator: Adobe Illustrator 23.0.0, SVG Export Plug-In . SVG Version: 6.00 Build 0)  -->
<svg version="1.1" id="レイヤー_1" xmlns="http://www.w3.org/2000/svg" xmlns:xlink="http://www.w3.org/1999/xlink" x="0px"
	 y="0px" viewBox="0 0 16 16" style="enable-background:new 0 0 16 16;" xml:space="preserve">
<style type="text/css">
	.st0{fill:#FFFFFF;}
</style>
<title>icon_in</title>
<path class="st0" d="M11.3,15.9H4.7c-2.5,0-4.6-2.1-4.6-4.6c0,0,0,0,0,0V4.7c0-2.5,2.1-4.6,4.6-4.6h6.6c2.5,0,4.6,2.1,4.6,4.6l0,0
	v6.6C15.9,13.9,13.9,15.9,11.3,15.9z M4.7,1.5C3,1.5,1.5,2.9,1.5,4.7v6.6c0,1.7,1.4,3.1,3.2,3.1h6.6c1.7,0,3.1-1.4,3.1-3.1V4.7
	c0-1.7-1.4-3.1-3.1-3.2L4.7,1.5z"/>
<path class="st0" d="M8,12.1c-2.2,0-4.1-1.8-4.1-4.1S5.8,3.9,8,3.9s4.1,1.8,4.1,4.1l0,0C12,10.2,10.2,12,8,12.1z M8,5.4
	C6.5,5.4,5.4,6.5,5.4,8s1.2,2.6,2.6,2.6s2.6-1.2,2.6-2.6l0,0C10.6,6.5,9.5,5.4,8,5.4z"/>
<path class="st0" d="M13.2,3.8c0,0.6-0.4,1-1,1s-1-0.4-1-1s0.4-1,1-1S13.2,3.2,13.2,3.8z"/>
</svg>
